# AST/ASF file generated using VICON BodyLanguage
# -----------------------------------------------
:version 1.10
:name VICON
:units
  mass 1.0
  length 0.45
  angle deg
:documentation
   .ast/.asf automatically generated from VICON data using
   VICON BodyBuilder and BodyLanguage model FoxedUp or BRILLIANT.MOD
:root
   order TX TY TZ RX RY RZ
   axis XYZ
   position 0 0 0  
   orientation 0 -0 0 
:bonedata
  begin
     id 1 
     name lhipjoint
     direction 0.500677 -0.737119 0.453848 
     length 2.34727 
     axis 0 -0 0  XYZ
  end
  begin
     id 2 
     name lfemur
     direction 0.34202 -0.939693 0  
     length 7.53653  
     axis 0 -0 20  XYZ
    dof rx ry rz
    limits (-160.0 20.0)
           (-70.0 70.0)
           (-60.0 70.0)
  end
  begin
     id 3 
     name ltibia
     direction 0.34202 -0.939693 0   
     length 6.85572   
     axis 0 -0 20   XYZ
    dof rx
    limits (-10.0 170.0)
  end
  begin
     id 4 
     name lfoot
     direction 0.155313 -0.426718 0.890949   
     length 2.18324   
     axis -90 -1.13533e-015 20   XYZ
    dof rx rz
    limits (-45.0 90.0)
           (-70.0 20.0)
  end
  begin
     id 5 
     name ltoes
     direction 1.53474e-011 -4.21647e-011 1   
     length 1.06748   
     axis -90 -1.13533e-015 20   XYZ
    dof rx
    limits (-90.0 20.0)
  end
  begin
     id 6 
     name rhipjoint
     direction -0.632471 -0.659587 0.406111   
     length 2.62319  
     axis 0 -0 0  XYZ 
  end
  begin
     id 7 
     name rfemur
     direction -0.34202 -0.939693 0   
     length 7.21735   
     axis 0 -0 -20   XYZ
    dof rx ry rz
    limits (-160.0 20.0)
           (-70.0 70.0)
           (-70.0 60.0)
  end
  begin
     id 8 
     name rtibia
     direction -0.34202 -0.939693 0   
     length 7.02558   
     axis 0 -0 -20   XYZ
    dof rx
    limits (-10.0 170.0)
 end
 begin
     id 9 
     name rfoot
     direction -0.16057 -0.441164 0.882945   
     length 2.10014  
     axis -90 1.13533e-015 -20   XYZ
    dof rx rz
    limits (-45.0 90.0)
           (-20.0 70.0)
  end
  begin
     id 10 
     name rtoes
     direction -1.53553e-011 -4.2192e-011 1   
     length 1.02554   
     axis -90 1.13533e-015 -20   XYZ
    dof rx
    limits (-90.0 20.0)
  end
  begin
     id 11 
     name lowerback
     direction 0.0401429 0.998861 -0.0258085   
     length 1.80848   
     axis 0 -0 0   XYZ
    dof rx ry rz
    limits (-20.0 45.0)
           (-30.0 30.0)
           (-30.0 30.0)
  end
  begin
     id 12 
     name upperback
     direction -0.0130978 0.999914 -0.000352645   
     length 1.8116   
     axis 0 -0 0   XYZ
    dof rx ry rz
    limits (-20.0 45.0)
           (-30.0 30.0)
           (-30.0 30.0)
  end
  begin
     id 13 
     name thorax
     direction -0.0300198 0.999453 0.0138573   
     length 1.81778   
     axis 0 -0 0   XYZ
    dof rx ry rz
    limits (-20.0 45.0)
           (-30.0 30.0)
           (-30.0 30.0)
  end
  begin
     id 14 
     name lowerneck
     direction -0.0401726 0.999191 -0.00173647   
     length 2.10594   
     axis 0 -0 0   XYZ
    dof rx ry rz
    limits (-20.0 45.0)
           (-30.0 30.0)
           (-30.0 30.0)
  end
  begin
     id 15 
     name upperneck
     direction 0.0119835 0.998501 0.0534085   
     length 2.07325   
     axis 0 -0 0   XYZ
    dof rx ry rz
    limits (-20.0 45.0)
           (-30.0 30.0)
           (-30.0 30.0)
  end
  begin
     id 16
     name head
     direction 0.00628309 0.999826 0.0175921  
     length 2.15096  
     axis 0 -0 0   XYZ
    dof rx ry rz
    limits (-20.0 45.0)
           (-30.0 30.0)
           (-30.0 30.0)
  end
  begin
     id 17 
     name lclavicle
     direction 0.895501 0.429681 -0.115981  
     length 4.18092  
     axis 0 -0 0   XYZ
    dof ry rz
    limits (-20.0 10.0)
           (0.0 20.0)
  end
  begin
     id 18 
     name lhumerus
     direction 1 -4.48961e-011 -3.38433e-028   
     length 5.77237   
     axis 180 -30 -90   XYZ
    dof rx ry rz
    limits (-60.0 90.0)
           (-90.0 90.0)
           (-90.0 90.0)
  end
  begin
     id 19
     name lradius
     direction 1 -4.4901e-011 1.11983e-026   
     length 2.91878   
     axis 180 -30 -90   XYZ
    dof rx
    limits (-10.0 170.0)
  end
  begin
     id 20
     name lwrist
     direction 1 -4.48934e-011 1.88176e-026   
     length 1.45939   
     axis -1.23311e-014 90 90   XYZ
    dof ry
    limits (-180.0 0.0)
 end
  begin
     id 21 
     name lhand
     direction 1 -4.4895e-011 3.76352e-026   
     length 1.06566   
     axis -2.40147e-014 90 90   XYZ
    dof rx rz
    limits (-90.0 90.0)
           (-45.0 45.0)
  end
  begin
     id 22 
     name lfingers
     direction 1 -4.49005e-011 7.52705e-026   
     length 0.859162   
     axis -4.80295e-014 90 90   XYZ
    dof rx
    limits (0.0 90.0)
  end
  begin
     id 23
     name lthumb
     direction 0.707107 -6.34885e-011 0.707107   
     length 1.23359   
     axis -90 45 -9.86935e-015   XYZ
    dof rx rz
    limits (-45.0 45.0)
           (-45.0 45.0)
  end
  begin
     id 24 
     name rclavicle
     direction -0.91006 0.40451 -0.0903492   
     length 4.23293  
     axis 0 -0 0   XYZ 
    dof ry rz
    limits (-10.0 20.0)
           (-20.0 0.0)
  end
  begin
     id 25 
     name rhumerus
     direction -1 -4.4897e-011 1.7415e-027  
     length 5.49854   
     axis 180 30 90   XYZ
    dof rx ry rz
    limits (-90.0 60.0)
           (-90.0 90.0)
           (-90.0 90.0)
  end
  begin
     id 26 
     name rradius
     direction -1 -4.48963e-011 1.21259e-026   
     length 3.1186   
     axis 180 30 90   XYZ
    dof rx
    limits (-10.0 170.0)
  end
  begin
     id 27 
     name rwrist
     direction -1 -4.48967e-011 1.88176e-026   
     length 1.5593   
     axis -1.23311e-014 -90 -90   XYZ
    dof ry
    limits (-180.0 0.0)
  end
  begin
     id 28
     name rhand
     direction -1 -4.4895e-011 3.76352e-026   
     length 0.71207   
     axis -2.40147e-014 -90 -90   XYZ
    dof rx rz
    limits (-90.0 90.0)
           (-45.0 45.0)
  end
  begin
     id 29
     name rfingers
     direction -1 -4.49005e-011 7.52705e-026   
     length 0.574089   
     axis -4.80295e-014 -90 -90   XYZ
    dof rx
    limits (0.0 90.0)
  end
  begin
     id 30
     name rthumb
     direction -0.707107 -6.34982e-011 0.707107   
     length 0.824281   
     axis -90 -45 9.86935e-015   XYZ
    dof rx rz
    limits (-45.0 45.0)
           (-45.0 45.0)
  end
:hierarchy
  begin
    root lhipjoint rhipjoint lowerback
    lhipjoint lfemur
    lfemur ltibia
    ltibia lfoot
    lfoot ltoes
    rhipjoint rfemur
    rfemur rtibia
    rtibia rfoot
    rfoot rtoes
    lowerback upperback
    upperback thorax
    thorax lowerneck lclavicle rclavicle
    lowerneck upperneck
    upperneck head
    lclavicle lhumerus
    lhumerus lradius
    lradius lwrist
    lwrist lhand lthumb
    lhand lfingers
    rclavicle rhumerus
    rhumerus rradius
    rradius rwrist
    rwrist rhand rthumb
    rhand rfingers
  end

#!OML:ASF C:\ViconDB\ViconDB\414\Spring2016\042216\male.ASF
:FULLY-SPECIFIED
:DEGREES
222
root 4.7652 14.3424 9.77406 -147.804 58.2647 -171.435
lowerback 23.7068 -4.34335 7.33307
upperback 3.02475 -3.58253 -1.10711
thorax -10.4119 -1.86359 -4.30145
lowerneck -2.73351 4.02575 -6.1686
upperneck -33.0417 8.03693 -0.237158
head -10.3945 5.66874 0.147837
rclavicle 1.08934e-013 -4.45278e-014
rhumerus -2.60692 14.5802 -89.58
rradius 52.2412
rwrist 16.1679
rhand 9.52181 -19.709
rfingers 7.12502
rthumb 34.6727 -46.3409
lclavicle 1.08934e-013 -4.45278e-014
lhumerus -3.85505 -2.37956 86.8813
lradius 54.3575
lwrist -1.70811
lhand -8.30284 8.59272
lfingers 7.12502
lthumb 17.6174 37.8145
rfemur -65.8646 -10.9263 24.515
rtibia 87.966
rfoot -30.8324 -6.46353
rtoes -27.3843
lfemur -67.9215 -0.636318 -17.5738
ltibia 89.1429
lfoot -41.2491 19.9372
ltoes -27.6573
223
root 4.7667 14.2904 9.75947 -147.848 58.2697 -171.673
lowerback 24.3946 -4.46268 7.31125
upperback 3.03002 -3.67531 -1.12943
thorax -10.7857 -1.90932 -4.25965
lowerneck -2.35805 4.0177 -6.03116
upperneck -33.6933 8.02606 -0.435382
head -10.7044 5.6987 0.0148804
rclavicle -3.97569e-015 -3.49861e-014
rhumerus 0.291943 15.5788 -88.7507
rradius 54.0608
rwrist 17.2635
rhand 10.4186 -18.9153
rfingers 7.12502
rthumb 35.5233 -45.3475
lclavicle -3.97569e-015 -3.49861e-014
lhumerus -1.84109 -3.58994 86.0709
lradius 57.2413
lwrist -1.27999
lhand -8.12292 8.29048
lfingers 7.12502
lthumb 17.7906 37.4967
rfemur -66.5925 -11.2307 24.4471
rtibia 88.883
rfoot -30.5724 -6.34399
rtoes -27.8596
lfemur -68.2492 -1.0257 -17.6246
ltibia 89.6841
lfoot -41.6569 20.595
ltoes -28.0872
224
root 4.77558 14.2301 9.74074 -147.728 58.2589 -171.732
lowerback 24.8734 -4.56958 7.48818
upperback 3.03365 -3.72578 -1.1989
thorax -11.0596 -1.94478 -4.40611
lowerneck -2.23288 4.05233 -5.89997
upperneck -34.0327 8.08596 -0.575032
head -10.8523 5.74679 -0.0821655
rclavicle -2.3059e-014 7.95139e-015
rhumerus 2.88838 16.2036 -87.9366
rradius 56.4369
rwrist 17.361
rhand 10.7645 -19.4543
rfingers 7.12502
rthumb 35.8511 -45.8072
lclavicle -2.3059e-014 7.95139e-015
lhumerus 0.109822 -4.61265 85.1731
lradius 60.5335
lwrist -0.626372
lhand -8.01326 8.28643
lfingers 7.12502
lthumb 17.8961 37.483
rfemur -67.3123 -11.4035 24.3518
rtibia 89.8322
rfoot -30.2706 -5.98758
rtoes -28.1015
lfemur -68.5524 -1.15033 -17.6848
ltibia 90.2214
lfoot -42.2112 21.0288
ltoes -28.1219
225
root 4.79619 14.1738 9.72504 -147.493 58.4487 -171.703
lowerback 25.2445 -4.50911 7.3559
upperback 3.02597 -3.64285 -1.17744
thorax -11.2443 -1.90199 -4.32346
lowerneck -1.83122 3.99803 -5.65689
upperneck -34.7265 7.97131 -0.938854
head -11.1749 5.73592 -0.290228
rclavicle -2.94201e-014 -1.11319e-014
rhumerus 5.21044 16.7244 -86.9395
rradius 59.3353
rwrist 17.4445
rhand 11.45 -19.0917
rfingers 7.12502
rthumb 36.5003 -45.2837
lclavicle -2.94201e-014 -1.11319e-014
lhumerus 2.041 -5.44245 84.2515
lradius 63.9508
lwrist -0.0896672
lhand -8.48765 8.1167
lfingers 7.12502
lthumb 17.4396 37.3544
rfemur -68.0162 -11.1189 24.0687
rtibia 90.7556
rfoot -29.8912 -5.6651
rtoes -28.2868
lfemur -68.7902 -1.26084 -17.6901
ltibia 90.724
lfoot -42.853 21.6328
ltoes -28.1831
226
root 4.81972 14.1202 9.70472 -147.467 58.4953 -171.892
lowerback 25.4644 -4.53866 7.37517
upperback 3.02938 -3.66055 -1.23649
thorax -11.365 -1.91373 -4.38852
lowerneck -1.88748 3.97881 -5.55375
upperneck -34.9506 7.98311 -1.00389
head -11.2478 5.75762 -0.34136
rclavicle -1.19271e-014 -3.97569e-014
rhumerus 7.28955 17.1027 -85.9263
rradius 62.6773
rwrist 16.641
rhand 11.6931 -19.644
rfingers 7.12502
rthumb 36.7304 -45.7777
lclavicle -1.19271e-014 -3.97569e-014
lhumerus 3.85928 -6.08776 83.1982
lradius 67.7225
lwrist 0.790891
lhand -9.17862 8.73575
lfingers 7.12502
lthumb 16.7745 38.0311
rfemur -68.6164 -10.9845 23.7121
rtibia 91.597
rfoot -29.6111 -5.34795
rtoes -28.4984
lfemur -69.002 -1.4189 -17.8328
ltibia 91.2158
lfoot -43.3309 22.5445
ltoes -28.5981
227
root 4.85366 14.0712 9.67009 -147.511 58.6362 -172.1
lowerback 25.5552 -4.56488 7.40603
upperback 3.0669 -3.68301 -1.30314
thorax -11.3798 -1.92474 -4.47222
lowerneck -1.81469 3.95686 -5.51541
upperneck -35.3327 7.98018 -1.10611
head -11.4123 5.78909 -0.406576
rclavicle 3.33958e-014 -4.45278e-014
rhumerus 9.29243 17.5287 -84.7299
rradius 66.3847
rwrist 14.8583
rhand 11.9394 -19.9503
rfingers 7.12502
rthumb 36.9634 -46.0242
lclavicle 3.33958e-014 -4.45278e-014
lhumerus 5.60778 -6.66493 82.0421
lradius 71.7277
lwrist 2.28087
lhand -9.48814 7.97163
lfingers 7.12502
lthumb 16.4765 37.292
rfemur -68.9719 -11.001 23.3655
rtibia 92.2847
rfoot -29.6547 -5.01284
rtoes -28.4995
lfemur -69.1071 -1.66085 -18.0672
ltibia 91.7295
lfoot -43.6345 23.5108
ltoes -29.0119
228
root 4.8954 14.0265 9.63921 -147.4 58.7106 -172.077
lowerback 25.6424 -4.54612 7.4494
upperback 3.07913 -3.63504 -1.28906
thorax -11.4069 -1.90334 -4.49626
lowerneck -1.75748 3.88871 -5.46451
upperneck -35.6571 7.90509 -1.20008
head -11.5487 5.78136 -0.461139
rclavicle 7.07673e-014 -6.20208e-014
rhumerus 11.1047 17.7427 -83.4036
rradius 70.3924
rwrist 13.0858
rhand 12.9406 -19.6966
rfingers 7.12502
rthumb 37.9097 -45.5203
lclavicle 7.07673e-014 -6.20208e-014
lhumerus 7.2013 -7.04835 81.0255
lradius 76.0204
lwrist 4.03835
lhand -10.1899 8.32893
lfingers 7.12502
lthumb 15.8008 37.7041
rfemur -69.0915 -10.8812 23.313
rtibia 92.8253
rfoot -29.924 -5.06194
rtoes -28.1854
lfemur -69.2263 -1.75956 -18.1176
ltibia 92.2797
lfoot -43.8573 24.0545
ltoes -29.2938
